<?xml version="1.0" standalone="no"?>
<!DOCTYPE svg PUBLIC "-//W3C//DTD SVG 20010904//EN"
 "http://www.w3.org/TR/2001/REC-SVG-20010904/DTD/svg10.dtd">
<svg version="1.0" xmlns="http://www.w3.org/2000/svg"
 width="900.000000pt" height="900.000000pt" viewBox="0 0 900.000000 900.000000"
 preserveAspectRatio="xMidYMid meet">
<metadata>
Created by potrace 1.11, written by Peter Selinger 2001-2013
</metadata>
<g transform="translate(0.000000,900.000000) scale(0.100000,-0.100000)"
fill="#000000" stroke="none">
<path d="M4284 6174 c-344 -57 -647 -273 -823 -586 -18 -32 -29 -58 -24 -58 4
0 2 -4 -5 -9 -7 -4 -14 -14 -16 -22 -1 -8 -13 -45 -25 -84 -12 -38 -24 -87
-26 -107 -2 -21 -6 -41 -9 -46 -6 -10 -15 -141 -22 -312 -5 -112 -5 -756 -1
-875 1 -33 6 -65 10 -72 4 -6 3 -14 -2 -18 -6 -3 -8 -11 -6 -18 4 -11 7 -38
20 -162 2 -22 6 -51 9 -65 3 -14 9 -40 12 -58 3 -18 10 -35 15 -38 5 -3 7 -9
4 -14 -9 -14 73 -186 126 -265 42 -64 177 -215 192 -215 3 0 18 -11 32 -24 50
-47 196 -137 276 -171 98 -43 195 -69 289 -81 25 -3 56 -7 70 -10 36 -6 218
-6 265 1 241 35 404 99 565 222 l69 53 33 -28 c18 -15 40 -32 48 -39 23 -17
160 -128 203 -164 21 -18 58 -47 81 -65 l44 -33 28 32 c16 18 56 63 89 102 91
105 101 117 139 160 20 22 36 43 36 47 0 3 -57 52 -127 108 -71 55 -135 106
-143 113 -8 7 -45 36 -82 65 -45 35 -66 59 -65 72 1 11 4 20 8 20 7 0 55 147
64 195 2 17 7 41 10 55 28 137 27 1356 -1 1505 -3 17 -7 39 -8 50 -1 12 -5 25
-8 30 -3 6 -9 26 -13 45 -11 50 -49 132 -108 230 -59 98 -70 112 -157 201
-171 175 -349 273 -586 325 -103 22 -369 27 -480 8z m370 -501 c96 -20 179
-60 256 -123 36 -30 66 -58 68 -62 2 -4 20 -28 40 -52 46 -56 86 -134 107
-207 33 -119 39 -212 39 -684 0 -392 -4 -535 -14 -535 -3 0 -5 -15 -5 -32 1
-18 -3 -48 -8 -67 -5 -18 -10 -41 -12 -50 -11 -56 -31 -115 -63 -181 -43 -90
-43 -89 -110 -156 -164 -165 -510 -215 -727 -106 -111 55 -168 100 -250 197
-22 26 -77 126 -81 148 -1 4 -3 9 -4 12 -1 3 -4 10 -5 15 -1 6 -3 11 -5 13 -2
3 -8 32 -15 77 -4 19 -8 46 -11 60 -25 136 -25 1053 1 1180 2 13 7 42 11 64 3
22 10 48 15 58 5 10 7 18 3 18 -3 0 -1 7 6 15 7 8 10 15 6 15 -14 0 63 124
114 182 96 111 234 186 390 212 52 8 188 2 254 -11z"/>
<path d="M7129 6179 c-145 -20 -299 -71 -405 -135 -149 -89 -305 -230 -380
-342 -22 -31 -41 -59 -44 -62 -5 -5 -62 -119 -65 -130 -1 -3 -7 -18 -15 -35
-7 -16 -14 -39 -16 -50 -2 -11 -10 -43 -18 -71 -8 -29 -16 -65 -18 -80 -1 -16
-7 -32 -13 -36 -6 -5 -5 -8 3 -8 7 0 10 -5 7 -10 -7 -11 -14 -95 -20 -240 -7
-141 -10 -810 -5 -810 3 0 6 -9 7 -20 1 -13 -2 -18 -9 -14 -7 5 -8 2 -2 -7 4
-8 9 -41 10 -74 3 -73 12 -199 18 -240 2 -16 7 -47 10 -67 3 -20 10 -56 17
-80 7 -24 13 -48 15 -54 1 -7 16 -41 33 -77 17 -36 31 -68 31 -71 0 -21 124
-190 180 -246 244 -243 535 -363 875 -361 50 1 104 3 120 6 66 11 92 15 130
20 65 10 238 72 306 111 313 176 537 481 573 779 19 157 28 396 28 775 -1 760
-23 885 -209 1158 -108 158 -319 328 -494 398 -177 70 -449 100 -650 73z m396
-523 c129 -41 213 -103 305 -222 89 -115 121 -208 135 -389 3 -39 8 -99 11
-135 6 -76 6 -688 -1 -775 -17 -232 -19 -249 -47 -335 -61 -191 -214 -346
-403 -408 -78 -26 -124 -33 -215 -33 -124 1 -203 20 -310 77 -129 69 -241 190
-289 312 -19 48 -24 64 -35 125 -17 86 -29 226 -30 354 -1 46 -5 83 -9 83 -5
0 -5 4 -2 10 9 15 12 91 3 96 -4 3 -3 16 2 29 6 15 6 25 0 25 -5 0 -5 12 0 29
4 15 4 34 0 42 -5 7 -6 17 -3 23 9 13 9 67 2 72 -4 2 -3 19 1 38 4 19 4 40 -1
47 -4 7 -5 18 -1 23 3 6 7 58 8 116 2 58 3 105 4 105 1 0 3 25 5 55 2 30 4 57
5 60 1 3 2 8 1 13 -3 18 32 164 50 211 64 161 240 314 414 360 92 24 93 24
210 21 85 -2 128 -9 190 -29z"/>
<path d="M7225 4793 c-32 -9 -65 -21 -72 -27 -7 -6 -30 -24 -51 -41 -124 -95
-148 -292 -53 -429 55 -78 135 -123 234 -133 181 -17 335 114 351 296 19 221
-189 391 -409 334z"/>
<path d="M573 6162 c-18 -2 -33 -9 -34 -15 0 -7 -1 -742 -2 -1634 -1 -1075 1
-1624 8 -1626 27 -10 1256 1 1320 11 90 15 201 46 277 78 108 45 305 178 383
259 32 32 107 128 142 180 48 71 113 198 113 220 0 8 4 15 10 15 5 0 9 3 8 8
-2 8 16 97 21 105 1 1 4 16 6 32 1 17 6 55 10 85 12 104 14 135 17 242 2 60 7
108 11 108 5 0 5 5 2 11 -9 14 -14 59 -6 59 8 0 5 475 -3 488 -3 6 -2 13 4 17
6 4 7 11 4 17 -4 6 -8 56 -10 112 -4 140 -13 256 -19 267 -4 5 -1 9 4 9 8 0 8
6 1 18 -5 9 -14 40 -20 67 -17 81 -25 103 -79 215 -90 189 -245 368 -406 473
-132 84 -237 125 -418 162 -62 13 -248 18 -746 19 -311 0 -581 0 -598 -2z
m1147 -476 c94 -6 116 -11 195 -41 109 -41 190 -101 283 -209 17 -21 32 -41
32 -45 0 -4 8 -16 18 -27 18 -21 60 -102 67 -131 3 -10 9 -36 15 -58 11 -45
21 -166 24 -300 1 -50 5 -96 10 -103 4 -6 3 -12 -3 -12 -7 0 -7 -8 -1 -24 5
-13 7 -26 5 -28 -5 -5 -6 -99 -5 -328 1 -80 -1 -114 -5 -118 -2 -3 0 -13 6
-23 5 -11 6 -19 2 -19 -4 0 -8 -28 -9 -63 -1 -127 -14 -272 -28 -322 -2 -5 -6
-23 -11 -40 -19 -70 -97 -189 -174 -262 -63 -61 -196 -133 -271 -148 -3 -1
-18 -4 -35 -8 -16 -3 -50 -9 -74 -12 -54 -8 -706 -9 -717 -2 -5 3 -9 526 -9
1164 l0 1158 90 5 c107 6 489 3 595 -4z"/>
</g>
</svg>
