<svg xmlns="http://www.w3.org/2000/svg" viewBox="0 0 196.62 99.79"><defs><style>.cls-1{fill:#033;}</style></defs><g id="Ebene_2" data-name="Ebene 2"><g id="Ebene_1-2" data-name="Ebene 1"><path class="cls-1" d="M17.5,45.31a14.93,14.93,0,0,0,14.82,14.9h1.94v6.44H32.32A21.53,21.53,0,0,1,11,45.31V38.8a21.34,21.34,0,0,1,42.68,0V44H17.5ZM32.32,23.9c-7.91,0-14,5.89-14.82,13.65H47.22A15,15,0,0,0,32.32,23.9Z"/><path class="cls-1" d="M66,67.5V0h6.44V49L99,15.52l5.2,3.88-13,16.37,17.46,21.8-5.2,3.88L87.1,41Z"/><path class="cls-1" d="M126.75,4.58a4.54,4.54,0,0,1-9.08,0,4.54,4.54,0,1,1,9.08,0Zm-1.32,56.87H119V16.22h6.44Z"/><path class="cls-1" d="M148.08,9.7v14A20.94,20.94,0,0,1,163,17.46a21.34,21.34,0,1,1,0,42.67,20.87,20.87,0,0,1-14.9-6.2V74.41h-6.44V9.7Zm0,29.17a14.9,14.9,0,1,0,14.9-15A14.83,14.83,0,0,0,148.08,38.87Z"/><path class="cls-1" d="M0,99.43V88.2H4.77v.39A12.49,12.49,0,0,0,3,88.52H.36v4.92h3a10.65,10.65,0,0,0,1.25-.06v.43c-.09,0-.7,0-1.12,0H.36v5.35H4a13,13,0,0,0,1.3,0v.36Z"/><path class="cls-1" d="M11.45,88.52V97.9s0,.67,0,1.55h-.36c0-.47,0-1.55,0-1.55V88.52H8.41a12.23,12.23,0,0,0-1.61.07V88.2h8.54v.39a12.87,12.87,0,0,0-1.6-.07Z"/><path class="cls-1" d="M18.92,93.45h7.69V90.21s0-1.22.07-2H27c-.07.89-.07,2-.07,2V97.9s0,.67,0,1.55h-.36c0-.47,0-1.55,0-1.55V93.78H18.92V97.9s0,.67,0,1.55h-.36c0-.47,0-1.55,0-1.55V90.21s0-1.22.07-2H19c-.07.89-.07,2-.07,2Z"/><path class="cls-1" d="M32,97.9s0,.67,0,1.55H31.7c0-.47,0-1.55,0-1.55V90.21s0-1.22.07-2h.36c-.07.89-.07,2-.07,2Z"/><path class="cls-1" d="M38.09,99.67a5.74,5.74,0,0,1-2.4-.54v-.36a5.59,5.59,0,0,0,2.38.57,2.51,2.51,0,0,0,2.81-2.48c0-1.25-.67-2.18-2.77-3.51-1.39-.89-2-1.77-2-2.92a2.44,2.44,0,0,1,2.7-2.56,7.33,7.33,0,0,1,2,.36v.4a4.17,4.17,0,0,0-2-.45,2.1,2.1,0,0,0-2.34,2.25c0,1,.69,1.82,1.86,2.59,1.36.9,3,1.89,3,3.82A2.88,2.88,0,0,1,38.09,99.67Z"/><path class="cls-1" d="M53.59,89.17a8.39,8.39,0,0,0-3.78-.92c-2.79,0-5,2.09-5,5.55,0,4.55,3.85,5.52,5.64,5.52a6.62,6.62,0,0,0,2.93-.86v.38a6.85,6.85,0,0,1-3.08.81,6,6,0,0,1-5.15-2.83,6.3,6.3,0,0,1-.7-3c0-3.47,2.18-5.88,5.35-5.88a10.13,10.13,0,0,1,3.85.84Z"/><path class="cls-1" d="M57.67,93.45h7.69V90.21s0-1.22.07-2h.36c-.07.89-.07,2-.07,2V97.9s0,.67,0,1.55H65.4c0-.47,0-1.55,0-1.55V93.78H57.67V97.9s0,.67,0,1.55h-.36c0-.47,0-1.55,0-1.55V90.21s0-1.22.07-2h.36c-.07.89-.07,2-.07,2Z"/><path class="cls-1" d="M70.42,99.43V88.2h4.77v.39a12.67,12.67,0,0,0-1.79-.07H70.78v4.92h3A10.5,10.5,0,0,0,75,93.38v.43c-.09,0-.7,0-1.11,0H70.78v5.35h3.6a12.85,12.85,0,0,0,1.29,0v.36Z"/><path class="cls-1" d="M84.58,97.9s0,.67,0,1.55h-.36c0-.47,0-1.55,0-1.55V90.21s0-1.22.07-2h.36c-.07.89-.07,2-.07,2Zm1.08-4.39,3.71-4.61a5.33,5.33,0,0,1,.61-.69h.49a5,5,0,0,0-.63.71l-3.69,4.59,4.26,5.17c.15.17.47.57.69.77h-.49a9,9,0,0,1-.66-.76Z"/><path class="cls-1" d="M94.73,97.9s0,.67,0,1.55h-.36c0-.47,0-1.55,0-1.55V90.21s0-1.22.08-2h.35c-.07.89-.07,2-.07,2Z"/><path class="cls-1" d="M104.47,94.52v3.71s0,.59,0,1.22h-.36c0-.63,0-1.22,0-1.22v-10c1,0,1.59-.09,2.56-.09a2.93,2.93,0,0,1,3.09,2.94c0,1.12-.05,3.53-4,3.53C105.41,94.59,104.94,94.55,104.47,94.52Zm2.07-6.11c-.79,0-2.07.11-2.07.11v5.71c.29,0,1,.07,1.33.07,1.53,0,2.56-.38,3.12-1.19a3.28,3.28,0,0,0,.5-2A2.62,2.62,0,0,0,106.54,88.41Z"/><path class="cls-1" d="M113.83,99.11h2.83c.72,0,1.62,0,2.09-.06v.38h-5.28V90.36s0-1.52.09-2.15h.36c-.07.69-.09,2.15-.09,2.15Z"/><path class="cls-1" d="M121.52,98a15,15,0,0,0-.53,1.42h-.37c.19-.6.34-1,.54-1.44l3.83-9.4,4.09,9.6c.13.3.45,1,.59,1.24h-.36a13.13,13.13,0,0,1-.65-1.3l-1-2.27h-5.31Zm1-2.47h5l-2.58-6Z"/><path class="cls-1" d="M134.8,88.52V97.9s0,.67,0,1.55h-.36c0-.47,0-1.55,0-1.55V88.52h-2.68a12.05,12.05,0,0,0-1.6.07V88.2h8.53v.39a12.87,12.87,0,0,0-1.6-.07Z"/><path class="cls-1" d="M144.66,88.52V97.9s0,.67,0,1.55h-.36c0-.47,0-1.55,0-1.55V88.52h-2.68a12.15,12.15,0,0,0-1.6.07V88.2h8.53v.39a12.77,12.77,0,0,0-1.6-.07Z"/><path class="cls-1" d="M151.77,88.2h4.7v.39a13.3,13.3,0,0,0-1.83-.07h-2.51v4.92h2.94a9.58,9.58,0,0,0,1.3-.06v.43c-.09,0-.77,0-1.18,0h-3.07v4.1s0,1,.06,1.59h-.36c0-.61-.06-1.59-.06-1.59Z"/><path class="cls-1" d="M159.55,93.9c0-3.35,1.76-5.94,5.2-5.94a5.93,5.93,0,0,1,.13,11.83C161.29,99.79,159.55,97.09,159.55,93.9Zm10.48,0a5.27,5.27,0,0,0-5.28-5.58c-3.33,0-4.84,2.55-4.84,5.61,0,2.6,1.28,5.57,5,5.57A5.32,5.32,0,0,0,170,93.87Z"/><path class="cls-1" d="M174.6,94.7v3.9s0,.63,0,.85h-.36c0-.27,0-.85,0-.85V88.2c.72,0,1.2-.08,2.18-.08,1.63,0,3.07.38,3.76,2.06a4.14,4.14,0,0,1,.25,1.51,3,3,0,0,1-2.41,3,1.64,1.64,0,0,1,.68.54c.78.92,1.66,2.1,2.68,3.38.29.36.46.56.71.85h-.49l-3-3.78c-.65-.81-.88-.94-2.11-.94C176,94.73,175.44,94.73,174.6,94.7Zm4.09-5.82a4.77,4.77,0,0,0-2.47-.47c-.79,0-1.62.09-1.62.09v5.91c.39,0,1,0,3.11,0a2.61,2.61,0,0,0,2.36-2.7A3.26,3.26,0,0,0,178.69,88.88Z"/><path class="cls-1" d="M196.25,99.45a9.22,9.22,0,0,1-.16-1.35l-.52-7.82-5.06,8.94-5.22-9.15-.49,8c-.05.74-.05,1.39-.05,1.39h-.32s0-.85,0-1.44L185,88.9l5.49,9.63,5.33-9.43.59,9a10.14,10.14,0,0,0,.17,1.39Z"/></g></g></svg>